<?xml version="1.0" encoding="UTF-8"?>
<svg xmlns="http://www.w3.org/2000/svg" xmlns:xlink="http://www.w3.org/1999/xlink" viewBox="0 0 269.45 271.08">
  <defs>
    <style>
      .cls-1 {
        fill: none;
      }

      .cls-2 {
        fill: #f9a948;
      }

      .cls-3 {
        mix-blend-mode: multiply;
        opacity: .78;
      }

      .cls-4 {
        fill: #a5a5a5;
      }

      .cls-5 {
        isolation: isolate;
      }

      .cls-6 {
        fill: #8e684f;
      }

      .cls-7 {
        clip-path: url(#clippath);
      }
    </style>
    <clipPath id="clippath">
      <path class="cls-1" d="M190.05,140.16v130.84h-52.96v-128.97c0-28.68-18.55-51.92-41.43-51.92s-41.44,23.24-41.44,51.92v128.97H.05V105.26C.05,66.63,22.19,33.27,54.22,17.69c12.37-6.02,26.21-9.39,40.83-9.39s29.37,3.59,42.04,9.99c2.65,1.34,5.22,2.8,7.72,4.38-10.21,12.49-16.34,28.44-16.34,45.83,0,36.32,26.72,66.4,61.58,71.66ZM200.95,0c-37.83,0-68.5,30.67-68.5,68.5s30.67,68.5,68.5,68.5,68.5-30.67,68.5-68.5S238.78,0,200.95,0ZM200.95,0c-21.25,0-40.23,9.67-52.8,24.86,25.28,17.42,41.9,46.93,41.9,80.4v30.87c3.55.57,7.19.87,10.9.87,37.83,0,68.5-30.67,68.5-68.5S238.78,0,200.95,0ZM148.15,24.86c-9.81,11.85-15.7,27.06-15.7,43.64,0,34.12,24.95,62.41,57.6,67.63v-30.87c0-33.47-16.62-62.98-41.9-80.4Z"/>
    </clipPath>
  </defs>
  <g class="cls-5">
    <g id="Camada_2" data-name="Camada 2">
      <g id="Camada_1-2" data-name="Camada 1">
        <path class="cls-4" d="M128.42,68.58c0-17.39,6.13-33.34,16.34-45.83-2.5-1.57-5.07-3.04-7.72-4.38-12.67-6.4-26.94-9.99-42.04-9.99s-28.46,3.37-40.83,9.39C22.14,33.35,0,66.71,0,105.34v165.74h54.17v-128.97c0-28.68,18.55-51.92,41.44-51.92s41.43,23.24,41.43,51.92v128.97h52.96v-130.84c-34.86-5.26-61.58-35.33-61.58-71.66Z"/>
        <circle class="cls-2" cx="200.9" cy="68.58" r="68.5"/>
        <path class="cls-1" d="M200.9.08c-21.25,0-40.23,9.67-52.8,24.86,25.28,17.42,41.9,46.93,41.9,80.4v30.87c3.55.57,7.19.87,10.9.87,37.83,0,68.5-30.67,68.5-68.5S238.73.08,200.9.08Z"/>
        <path class="cls-6" d="M148.1,24.94c-9.81,11.85-15.7,27.06-15.7,43.64,0,34.12,24.95,62.41,57.6,67.63v-30.87c0-33.47-16.62-62.98-41.9-80.4Z"/>
      </g>
    </g>
  </g>
</svg>