<?xml version="1.0" encoding="UTF-8"?>
<svg id="Camada_2" data-name="Camada 2" xmlns="http://www.w3.org/2000/svg" viewBox="0 0 231.94 230.31">
  <defs>
    <style>
      .cls-1 {
        fill: #af7a48;
      }
    </style>
  </defs>
  <g id="Camada_1-2" data-name="Camada 1">
    <g>
      <path class="cls-1" d="M163.2,191.36l-93.83.02c-.07,5.45-.14,15.4-4.65,17.04-6.04,2.19-31.85,6.67-31.79-7.83l.23-52.76,5.3-11.19c-8.06-.56-13.16-5.98-12.7-12.55.97-13.87,17.04-8.79,25.1-9.88,3.11-.42,7.73-25.41,21.08-26.88,25.83-2.86,51.09-2.01,77-1.54,11.74.21,20.15,3.9,25.23,15.1l6.56,14.46,14.79-1.21c5.46-.44,11.81,6.06,11.49,11.45-.35,5.75-6.93,10.35-12.94,11.37,2.82,5.55,5.61,12.17,5.63,17.74l.13,44.63c.05,15.87-22.81,11.23-34.22,9.43l-2.41-17.4ZM178.44,129.33l-9.93-24.38c-2.37-5.83-8.08-11.17-15.39-11.18l-74.31-.11c-4.24,0-11.54,3.96-13.03,7.39l-12.15,27.97,124.81.31ZM46.17,123.74c-3.12-2.82-11.99-3.33-13.06,1.33-.64,2.79,5.73,4.57,8.63,3.98,1.89-.38,4.61-3.3,4.43-5.31ZM199.63,121.65l-13.73.29.16,7.36,13.73-.29-.16-7.36ZM184.7,183.67c2.61,0,6.86-2.03,7.37-4.01.42-1.65-.42-6.54-1.76-6.9l-34.64-.72c-4.64-7.83.69-16.92,7.43-19.45,9-3.37,17.62-4.29,26.95-5-.03-2.73-4.54-10.08-7.85-10.89H49.95c-3.11.98-7.47,6.96-8.38,10.24,9.54,1.65,17.14,2.81,25.91,5.09,8.25,2.14,13.4,14.52,8.44,20.64-12.12-.54-24.26-1.21-35.41-.2-.16,3.76-.47,7.86.83,9.19s5.42,2.18,7.89,2.18l135.47-.16ZM70.71,163.71c-10.18-9.85-20.28-7.77-30.53-7.53l1.03,8.73c9.53,2.24,20.97,2.64,29.5-1.21ZM190.98,164.35c1.29-1.04,1.11-7.52.07-8.73-26.43-1.85-34.78,10.96-25.46,10.36l25.39-1.64ZM61.78,202.12l-.38-10.64-21.28-.4.87,11.37,20.78-.33ZM192.11,202.09l-.23-11.29-21.49,1.14.68,10.59,21.04-.44Z"/>
      <path class="cls-1" d="M220.38,77.75l-55.56.12c-5.09.01-11.16-5.2-11.16-10.23V8.88C153.67,4.79,158.62,0,162.7,0l58.57.03c6.04,0,10.6,5.22,10.6,10.95l.02,54.56c0,5.56-4.99,12.2-11.52,12.21ZM224.32,69.87l-.3-62.34-62.83.07.23,62.37,62.9-.09Z"/>
      <path class="cls-1" d="M206.24,230.31c-1.27.03-6.03-3.6-5.23-4.36s3.35-3.05,4.47-3.08l18.59-.43.18-131.22c0-1.67,2.43-4.92,3.78-5.49s3.91,3.85,3.91,5.52l-.34,138.44-25.36.62Z"/>
      <path class="cls-1" d="M24.56,223.09c1.78.07,3.97.52,4.87.7,1.35.27-1.24,6.36-2.67,6.33l-26.65-.68L0,91.11c0-1.45,2.83-5.19,4.23-4.93s3.59,3.32,3.59,4.87l-.05,131.41,16.79.63Z"/>
      <path class="cls-1" d="M139.04,174.15c-14,3.22-29.89,2.39-44.03.86-7.53-.81-11.09-15.72-7.55-22.17h55.59c4.71,3.51,3.26,19.64-4,21.31ZM134.18,168.4c2.31,0,4.76-6.64,2.91-7.81h-40.98c-1.3,0-2.47,3.75-1.71,4.65s3.89,3,5.44,3.01l34.34.14Z"/>
      <path class="cls-1" d="M193.67,45.15c-2.01.07-6.42-.12-6.61,1.03l-1.14,7.01-1.25,6.73c-.22,1.19-2.04.69-5.67.51l-.2-41.5c4.16-2.14,11-3.27,16.28-2.8,8.08.72,13.64,7.35,13.91,14.02.33,8.24-5.37,14.65-15.31,15ZM201.33,32.47c-.05-4.43-1.75-8.44-4.08-8.62-2.02-.16-8.88-.3-10.32.03l-.74,12.25c5.03,2.17,13.78,1.49,15.14-3.65Z"/>
    </g>
  </g>
</svg>